<svg preserveAspectRatio="none" width="100%" height="100%" overflow="visible" style="display: block;" viewBox="0 0 9 10" fill="none" xmlns="http://www.w3.org/2000/svg">
<path id="Vector" fill-rule="evenodd" clip-rule="evenodd" d="M2.17582 2.75746C2.17582 1.07173 2.94061 0 4.5 0C6.05939 0 6.82418 1.07173 6.82418 2.75746C6.82418 3.52958 6.392 4.25347 5.92526 4.77178C5.76646 5.05948 5.67153 5.34828 5.67153 5.60602C5.67153 6.05098 6.2115 6.14943 6.58072 6.21676C6.61872 6.22369 6.65491 6.23029 6.68852 6.2369C7.99071 6.56779 9 7.14203 9 8.54567C9 9.51522 6.75 10 4.5 10C2.25 10 0 9.51522 0 8.54567C0 7.14203 1.00929 6.56779 2.31148 6.2369C2.34508 6.23029 2.38127 6.22369 2.41927 6.21676C2.7885 6.14944 3.32847 6.05098 3.32847 5.60602C3.32847 5.34828 3.23354 5.05948 3.07474 4.77178C2.608 4.25347 2.17582 3.52958 2.17582 2.75746Z" fill="#FFFFFF"/>
</svg>
