<svg preserveAspectRatio="none" width="100%" height="100%" overflow="visible" style="display: block;" viewBox="0 0 20 19.9984" fill="none" xmlns="http://www.w3.org/2000/svg">
<path id="Subtract" fill-rule="evenodd" clip-rule="evenodd" d="M10 19.9984C15.5228 19.9984 20 15.5216 20 9.9992C20 4.4768 15.5228 0 10 0C4.47715 0 0 4.4768 0 9.9992C0 15.5216 4.47715 19.9984 10 19.9984ZM6.25 7.5C6.25 6.80964 6.80964 6.25 7.5 6.25C8.19036 6.25 8.75 6.80964 8.75 7.5V12.5C8.75 13.1904 8.19036 13.75 7.5 13.75C6.80964 13.75 6.25 13.1904 6.25 12.5V7.5ZM11.25 7.5C11.25 6.80964 11.8096 6.25 12.5 6.25C13.1904 6.25 13.75 6.80964 13.75 7.5V12.5C13.75 13.1904 13.1904 13.75 12.5 13.75C11.8096 13.75 11.25 13.1904 11.25 12.5V7.5Z" fill="var(--fill-0, #C1C5CE)"/>
</svg>
