<svg preserveAspectRatio="none" width="100%" height="100%" overflow="visible" style="display: block;" viewBox="0 0 26 19" fill="none" xmlns="http://www.w3.org/2000/svg">
<g id="Container">
<path id="Icon" d="M9.1 14.25H11.7V10.6875H15.6V8.3125H11.7V4.75H9.1V8.3125H5.2V10.6875H9.1V14.25ZM2.6 19C1.885 19 1.27292 18.7674 0.76375 18.3023C0.254583 17.8372 0 17.2781 0 16.625V2.375C0 1.72188 0.254583 1.16276 0.76375 0.697656C1.27292 0.232552 1.885 0 2.6 0H18.2C18.915 0 19.5271 0.232552 20.0362 0.697656C20.5454 1.16276 20.8 1.72188 20.8 2.375V7.71875L26 2.96875V16.0313L20.8 11.2813V16.625C20.8 17.2781 20.5454 17.8372 20.0362 18.3023C19.5271 18.7674 18.915 19 18.2 19H2.6Z" fill="var(--fill-0, #006592)"/>
</g>
</svg>
