<svg preserveAspectRatio="none" width="100%" height="100%" overflow="visible" style="display: block;" viewBox="0 0 18 12.75" fill="none" xmlns="http://www.w3.org/2000/svg">
<g id="Container">
<path id="Icon" d="M1.5 12.75C1.0875 12.75 0.734375 12.6031 0.440625 12.3094C0.146875 12.0156 0 11.6625 0 11.25H3C2.5875 11.25 2.23437 11.1031 1.94062 10.8094C1.64687 10.5156 1.5 10.1625 1.5 9.75V1.5C1.5 1.0875 1.64687 0.734375 1.94062 0.440625C2.23437 0.146875 2.5875 0 3 0H15C15.4125 0 15.7656 0.146875 16.0594 0.440625C16.3531 0.734375 16.5 1.0875 16.5 1.5V9.75C16.5 10.1625 16.3531 10.5156 16.0594 10.8094C15.7656 11.1031 15.4125 11.25 15 11.25H18C18 11.6625 17.8531 12.0156 17.5594 12.3094C17.2656 12.6031 16.9125 12.75 16.5 12.75H1.5V12.75M9 12C9.2125 12 9.39063 11.9281 9.53438 11.7844C9.67813 11.6406 9.75 11.4625 9.75 11.25C9.75 11.0375 9.67813 10.8594 9.53438 10.7156C9.39063 10.5719 9.2125 10.5 9 10.5C8.7875 10.5 8.60937 10.5719 8.46562 10.7156C8.32187 10.8594 8.25 11.0375 8.25 11.25C8.25 11.4625 8.32187 11.6406 8.46562 11.7844C8.60937 11.9281 8.7875 12 9 12V12M3 9.75H15V9.75V9.75V1.5V1.5V1.5H3V1.5V1.5V9.75V9.75V9.75V9.75M3 9.75V9.75V9.75V1.5V1.5V1.5V1.5V1.5V1.5V9.75V9.75V9.75V9.75V9.75" fill="var(--fill-0, #006592)"/>
</g>
</svg>
