<svg preserveAspectRatio="none" width="100%" height="100%" overflow="visible" style="display: block;" viewBox="0 0 13.5 13.5" fill="none" xmlns="http://www.w3.org/2000/svg">
<g id="Container">
<path id="Icon" d="M0 13.5V12H1.5V0H9V0.75H12V12H13.5V13.5H10.5V2.25H9V13.5H0V13.5M3 1.5V1.5V12V12V1.5V1.5M6 7.5C6.2125 7.5 6.39063 7.42813 6.53438 7.28438C6.67813 7.14063 6.75 6.9625 6.75 6.75C6.75 6.5375 6.67813 6.35937 6.53438 6.21562C6.39063 6.07187 6.2125 6 6 6C5.7875 6 5.60937 6.07187 5.46562 6.21562C5.32187 6.35937 5.25 6.5375 5.25 6.75C5.25 6.9625 5.32187 7.14063 5.46562 7.28438C5.60937 7.42813 5.7875 7.5 6 7.5V7.5M3 12H7.5V1.5H3V12V12" fill="var(--fill-0, #006592)"/>
</g>
</svg>
