<svg preserveAspectRatio="none" width="100%" height="100%" overflow="visible" style="display: block;" viewBox="0 0 16.875 16.875" fill="none" xmlns="http://www.w3.org/2000/svg">
<path id="Vector" d="M16.875 8.4375C16.875 13.0974 13.0974 16.875 8.4375 16.875C3.7776 16.875 0 13.0974 0 8.4375C0 3.7776 3.7776 0 8.4375 0C13.0974 0 16.875 3.7776 16.875 8.4375ZM14.4523 12.5973L7.875 8.76058V1.14631C4.09925 1.43354 1.125 4.58818 1.125 8.4375C1.125 12.4761 4.39892 15.75 8.4375 15.75C10.9306 15.75 13.1323 14.5023 14.4523 12.5973ZM15.02 11.6261C15.4877 10.6624 15.75 9.5806 15.75 8.4375C15.75 4.58818 12.7758 1.43354 9 1.14631V8.11442L15.02 11.6261Z" fill="var(--fill-0, #181C25)"/>
</svg>
