<svg preserveAspectRatio="none" width="100%" height="100%" overflow="visible" style="display: block;" viewBox="0 0 14.625 18" fill="none" xmlns="http://www.w3.org/2000/svg">
<g id="Vector">
<path d="M11.0029 5.94037L10.2074 5.14488L6.58525 8.76701L4.73299 6.91475L3.9375 7.71025L6.58525 10.358L11.0029 5.94037Z" fill="var(--fill-0, #181C25)"/>
<path d="M1.14955 11.25C0.421871 10.1134 0 8.76222 0 7.3125C0 3.27392 3.27392 0 7.3125 0C11.3511 0 14.625 3.27392 14.625 7.3125C14.625 8.76222 14.2031 10.1134 13.4755 11.25C12.9309 12.1005 11.8694 13.2132 9.78388 15.399C9.08237 16.1343 8.26501 16.991 7.3125 18C6.36006 16.9911 5.54274 16.1344 4.84126 15.3992C2.75578 13.2133 1.69406 12.1005 1.14955 11.25ZM10.7185 12.7795C11.7222 11.7064 12.2333 11.1037 12.528 10.6434C13.1596 9.65685 13.5 8.51128 13.5 7.3125C13.5 3.89524 10.7298 1.125 7.3125 1.125C3.89524 1.125 1.125 3.89524 1.125 7.3125C1.125 8.51128 1.46538 9.65685 2.097 10.6434C2.39171 11.1037 2.90277 11.7064 3.90648 12.7795C4.15016 13.0401 4.99616 13.9293 5.89378 14.8728L5.89471 14.8738C6.38139 15.3853 6.88338 15.913 7.3125 16.3647C7.74161 15.913 8.24338 15.3856 8.73005 14.874C9.62801 13.9302 10.4748 13.0402 10.7185 12.7795Z" fill="var(--fill-0, #181C25)"/>
</g>
</svg>
