<svg preserveAspectRatio="none" width="100%" height="100%" overflow="visible" style="display: block;" viewBox="0 0 15 13.5" fill="none" xmlns="http://www.w3.org/2000/svg">
<g id="Container">
<path id="Icon" d="M6.75 13.5V12H12.75V12V12V6.675C12.75 5.2125 12.2406 3.97187 11.2219 2.95312C10.2031 1.93438 8.9625 1.425 7.5 1.425C6.0375 1.425 4.79688 1.93438 3.77813 2.95312C2.75938 3.97187 2.25 5.2125 2.25 6.675V11.25H1.5C1.0875 11.25 0.734375 11.1031 0.440625 10.8094C0.146875 10.5156 0 10.1625 0 9.75V8.25C0 7.9875 0.065625 7.74063 0.196875 7.50938C0.328125 7.27813 0.5125 7.09375 0.75 6.95625L0.80625 5.9625C0.90625 5.1125 1.15312 4.325 1.54688 3.6C1.94063 2.875 2.43438 2.24375 3.02813 1.70625C3.62188 1.16875 4.30313 0.75 5.07188 0.45C5.84063 0.15 6.65 0 7.5 0C8.35 0 9.15625 0.15 9.91875 0.45C10.6812 0.75 11.3625 1.16562 11.9625 1.69687C12.5625 2.22812 13.0563 2.85625 13.4438 3.58125C13.8313 4.30625 14.0813 5.09375 14.1938 5.94375L14.25 6.91875C14.4875 7.03125 14.6719 7.2 14.8031 7.425C14.9344 7.65 15 7.8875 15 8.1375V9.8625C15 10.1125 14.9344 10.35 14.8031 10.575C14.6719 10.8 14.4875 10.9688 14.25 11.0813V12C14.25 12.4125 14.1031 12.7656 13.8094 13.0594C13.5156 13.3531 13.1625 13.5 12.75 13.5H6.75V13.5M5.25 8.25C5.0375 8.25 4.85937 8.17813 4.71562 8.03438C4.57187 7.89063 4.5 7.7125 4.5 7.5C4.5 7.2875 4.57187 7.10937 4.71562 6.96562C4.85937 6.82187 5.0375 6.75 5.25 6.75C5.4625 6.75 5.64063 6.82187 5.78438 6.96562C5.92813 7.10937 6 7.2875 6 7.5C6 7.7125 5.92813 7.89063 5.78438 8.03438C5.64063 8.17813 5.4625 8.25 5.25 8.25V8.25M9.75 8.25C9.5375 8.25 9.35937 8.17813 9.21562 8.03438C9.07187 7.89063 9 7.7125 9 7.5C9 7.2875 9.07187 7.10937 9.21562 6.96562C9.35937 6.82187 9.5375 6.75 9.75 6.75C9.9625 6.75 10.1406 6.82187 10.2844 6.96562C10.4281 7.10937 10.5 7.2875 10.5 7.5C10.5 7.7125 10.4281 7.89063 10.2844 8.03438C10.1406 8.17813 9.9625 8.25 9.75 8.25V8.25M3.01875 7.0875C2.93125 5.7625 3.33125 4.625 4.21875 3.675C5.10625 2.725 6.2125 2.25 7.5375 2.25C8.65 2.25 9.62813 2.60313 10.4719 3.30938C11.3156 4.01563 11.825 4.91875 12 6.01875C10.8625 6.00625 9.81563 5.7 8.85938 5.1C7.90312 4.5 7.16875 3.6875 6.65625 2.6625C6.45625 3.6625 6.03438 4.55312 5.39062 5.33437C4.74687 6.11562 3.95625 6.7 3.01875 7.0875V7.0875" fill="var(--fill-0, #624AC3)"/>
</g>
</svg>
