<svg preserveAspectRatio="none" width="100%" height="100%" overflow="visible" style="display: block;" viewBox="0 0 14.9812 15" fill="none" xmlns="http://www.w3.org/2000/svg">
<g id="Container">
<path id="Icon" d="M14.55 9.1875L9.1875 14.55C9.0375 14.7 8.86875 14.8125 8.68125 14.8875C8.49375 14.9625 8.30625 15 8.11875 15C7.93125 15 7.74375 14.9625 7.55625 14.8875C7.36875 14.8125 7.2 14.7 7.05 14.55L0.43125 7.93125C0.29375 7.79375 0.1875 7.63438 0.1125 7.45312C0.0375 7.27187 0 7.08125 0 6.88125V1.5C0 1.0875 0.146875 0.734375 0.440625 0.440625C0.734375 0.146875 1.0875 0 1.5 0H6.88125C7.08125 0 7.275 0.040625 7.4625 0.121875C7.65 0.203125 7.8125 0.3125 7.95 0.45L14.55 7.06875C14.7 7.21875 14.8094 7.3875 14.8781 7.575C14.9469 7.7625 14.9812 7.95 14.9812 8.1375C14.9812 8.325 14.9469 8.50938 14.8781 8.69063C14.8094 8.87188 14.7 9.0375 14.55 9.1875V9.1875M8.11875 13.5L13.4812 8.1375V8.1375V8.1375L6.8625 1.5H1.5V1.5V1.5V6.8625V6.8625V6.8625L8.11875 13.5V13.5V13.5V13.5M3.375 4.5C3.6875 4.5 3.95312 4.39062 4.17188 4.17188C4.39062 3.95312 4.5 3.6875 4.5 3.375C4.5 3.0625 4.39062 2.79688 4.17188 2.57812C3.95312 2.35938 3.6875 2.25 3.375 2.25C3.0625 2.25 2.79688 2.35938 2.57812 2.57812C2.35938 2.79688 2.25 3.0625 2.25 3.375C2.25 3.6875 2.35938 3.95312 2.57812 4.17188C2.79688 4.39062 3.0625 4.5 3.375 4.5V4.5M7.5 7.5V7.5V7.5V7.5V7.5V7.5V7.5V7.5V7.5V7.5V7.5V7.5V7.5V7.5V7.5" fill="var(--fill-0, #624AC3)"/>
</g>
</svg>
