<svg preserveAspectRatio="none" width="100%" height="100%" overflow="visible" style="display: block;" viewBox="0 0 18 9" fill="none" xmlns="http://www.w3.org/2000/svg">
<g id="Container">
<path id="Icon" d="M0 9V7.81875C0 7.28125 0.275 6.84375 0.825 6.50625C1.375 6.16875 2.1 6 3 6C3.1625 6 3.31875 6.00313 3.46875 6.00938C3.61875 6.01563 3.7625 6.03125 3.9 6.05625C3.725 6.31875 3.59375 6.59375 3.50625 6.88125C3.41875 7.16875 3.375 7.46875 3.375 7.78125V9H0V9M4.5 9V7.78125C4.5 7.38125 4.60938 7.01562 4.82812 6.68437C5.04688 6.35312 5.35625 6.0625 5.75625 5.8125C6.15625 5.5625 6.63438 5.375 7.19063 5.25C7.74688 5.125 8.35 5.0625 9 5.0625C9.6625 5.0625 10.2719 5.125 10.8281 5.25C11.3844 5.375 11.8625 5.5625 12.2625 5.8125C12.6625 6.0625 12.9687 6.35312 13.1812 6.68437C13.3937 7.01562 13.5 7.38125 13.5 7.78125V9H4.5V9M14.625 9V7.78125C14.625 7.45625 14.5844 7.15 14.5031 6.8625C14.4219 6.575 14.3 6.30625 14.1375 6.05625C14.275 6.03125 14.4156 6.01563 14.5594 6.00938C14.7031 6.00313 14.85 6 15 6C15.9 6 16.625 6.16562 17.175 6.49687C17.725 6.82812 18 7.26875 18 7.81875V9H14.625V9M6.09375 7.5H11.925V7.5C11.8 7.25 11.4531 7.03125 10.8844 6.84375C10.3156 6.65625 9.6875 6.5625 9 6.5625C8.3125 6.5625 7.68437 6.65625 7.11562 6.84375C6.54687 7.03125 6.20625 7.25 6.09375 7.5V7.5V7.5M3 5.25C2.5875 5.25 2.23437 5.10312 1.94062 4.80937C1.64687 4.51562 1.5 4.1625 1.5 3.75C1.5 3.325 1.64687 2.96875 1.94062 2.68125C2.23437 2.39375 2.5875 2.25 3 2.25C3.425 2.25 3.78125 2.39375 4.06875 2.68125C4.35625 2.96875 4.5 3.325 4.5 3.75C4.5 4.1625 4.35625 4.51562 4.06875 4.80937C3.78125 5.10312 3.425 5.25 3 5.25V5.25M15 5.25C14.5875 5.25 14.2344 5.10312 13.9406 4.80937C13.6469 4.51562 13.5 4.1625 13.5 3.75C13.5 3.325 13.6469 2.96875 13.9406 2.68125C14.2344 2.39375 14.5875 2.25 15 2.25C15.425 2.25 15.7813 2.39375 16.0688 2.68125C16.3563 2.96875 16.5 3.325 16.5 3.75C16.5 4.1625 16.3563 4.51562 16.0688 4.80937C15.7813 5.10312 15.425 5.25 15 5.25V5.25M9 4.5C8.375 4.5 7.84375 4.28125 7.40625 3.84375C6.96875 3.40625 6.75 2.875 6.75 2.25C6.75 1.6125 6.96875 1.07813 7.40625 0.646875C7.84375 0.215625 8.375 0 9 0C9.6375 0 10.1719 0.215625 10.6031 0.646875C11.0344 1.07813 11.25 1.6125 11.25 2.25C11.25 2.875 11.0344 3.40625 10.6031 3.84375C10.1719 4.28125 9.6375 4.5 9 4.5V4.5M9 3C9.2125 3 9.39063 2.92812 9.53438 2.78437C9.67813 2.64062 9.75 2.4625 9.75 2.25C9.75 2.0375 9.67813 1.85938 9.53438 1.71563C9.39063 1.57188 9.2125 1.5 9 1.5C8.7875 1.5 8.60937 1.57188 8.46562 1.71563C8.32187 1.85938 8.25 2.0375 8.25 2.25C8.25 2.4625 8.32187 2.64062 8.46562 2.78437C8.60937 2.92812 8.7875 3 9 3V3M9.01875 7.5V7.5V7.5V7.5V7.5V7.5V7.5V7.5V7.5M9 2.25V2.25V2.25V2.25V2.25V2.25V2.25V2.25V2.25V2.25" fill="var(--fill-0, #624AC3)"/>
</g>
</svg>
