<svg preserveAspectRatio="none" width="100%" height="100%" overflow="visible" style="display: block;" viewBox="0 0 18 24" fill="none" xmlns="http://www.w3.org/2000/svg">
<g id="Container">
<path id="Icon" d="M9 15.1579C7.92857 15.1579 7.01786 14.7895 6.26786 14.0526C5.51786 13.3158 5.14286 12.4211 5.14286 11.3684V3.78947C5.14286 2.73684 5.51786 1.84211 6.26786 1.10526C7.01786 0.368421 7.92857 0 9 0C10.0714 0 10.9821 0.368421 11.7321 1.10526C12.4821 1.84211 12.8571 2.73684 12.8571 3.78947V11.3684C12.8571 12.4211 12.4821 13.3158 11.7321 14.0526C10.9821 14.7895 10.0714 15.1579 9 15.1579ZM7.71429 24V20.1158C5.48571 19.8211 3.64286 18.8421 2.18571 17.1789C0.728571 15.5158 0 13.5789 0 11.3684H2.57143C2.57143 13.1158 3.19821 14.6053 4.45179 15.8368C5.70536 17.0684 7.22143 17.6842 9 17.6842C10.7786 17.6842 12.2946 17.0684 13.5482 15.8368C14.8018 14.6053 15.4286 13.1158 15.4286 11.3684H18C18 13.5789 17.2714 15.5158 15.8143 17.1789C14.3571 18.8421 12.5143 19.8211 10.2857 20.1158V24H7.71429Z" fill="var(--fill-0, #624AC3)"/>
</g>
</svg>
