<svg preserveAspectRatio="none" width="100%" height="100%" overflow="visible" style="display: block;" viewBox="0 0 8.16667 11.0833" fill="none" xmlns="http://www.w3.org/2000/svg">
<g id="Container">
<path id="Icon" d="M4.08333 7C3.59722 7 3.18403 6.82986 2.84375 6.48958C2.50347 6.14931 2.33333 5.73611 2.33333 5.25V1.75C2.33333 1.26389 2.50347 0.850694 2.84375 0.510417C3.18403 0.170139 3.59722 0 4.08333 0C4.56944 0 4.98264 0.170139 5.32292 0.510417C5.66319 0.850694 5.83333 1.26389 5.83333 1.75V5.25C5.83333 5.73611 5.66319 6.14931 5.32292 6.48958C4.98264 6.82986 4.56944 7 4.08333 7V7M4.08333 3.5V3.5V3.5V3.5V3.5V3.5V3.5V3.5V3.5V3.5V3.5V3.5M3.5 11.0833V9.28958C2.48889 9.15347 1.65278 8.70139 0.991667 7.93333C0.330556 7.16528 0 6.27083 0 5.25H1.16667C1.16667 6.05694 1.45104 6.74479 2.01979 7.31354C2.58854 7.88229 3.27639 8.16667 4.08333 8.16667C4.89028 8.16667 5.57812 7.88229 6.14687 7.31354C6.71562 6.74479 7 6.05694 7 5.25H8.16667C8.16667 6.27083 7.83611 7.16528 7.175 7.93333C6.51389 8.70139 5.67778 9.15347 4.66667 9.28958V11.0833H3.5V11.0833M4.08333 5.83333C4.24861 5.83333 4.38715 5.77743 4.49896 5.66563C4.61076 5.55382 4.66667 5.41528 4.66667 5.25V1.75C4.66667 1.58472 4.61076 1.44618 4.49896 1.33438C4.38715 1.22257 4.24861 1.16667 4.08333 1.16667C3.91806 1.16667 3.77951 1.22257 3.66771 1.33438C3.5559 1.44618 3.5 1.58472 3.5 1.75V5.25C3.5 5.41528 3.5559 5.55382 3.66771 5.66563C3.77951 5.77743 3.91806 5.83333 4.08333 5.83333V5.83333" fill="var(--fill-0, #624AC3)"/>
</g>
</svg>
