<svg preserveAspectRatio="none" width="100%" height="100%" overflow="visible" style="display: block;" viewBox="0 0 18 17.9998" fill="none" xmlns="http://www.w3.org/2000/svg">
<g id="Vector">
<path d="M9 5.0625C11.1746 5.0625 12.9375 6.82538 12.9375 9C12.9375 11.1746 11.1746 12.9375 9 12.9375C6.82538 12.9375 5.0625 11.1746 5.0625 9C5.0625 6.82538 6.82538 5.0625 9 5.0625ZM9 6.1875C7.4467 6.1875 6.1875 7.4467 6.1875 9C6.1875 10.5533 7.4467 11.8125 9 11.8125C10.5533 11.8125 11.8125 10.5533 11.8125 9C11.8125 7.4467 10.5533 6.1875 9 6.1875Z" fill="var(--fill-0, #181C25)"/>
<path d="M9.00216 0C9.3599 0.00112499 9.71652 0.0247497 10.0709 0.0697493L10.4264 0.121499L10.8966 0.195748L11.3781 1.63573C11.6391 1.72123 11.8956 1.81911 12.1465 1.93048L12.5177 2.10823L13.8812 1.42536L14.2705 1.70661C14.9323 2.18849 15.527 2.75635 16.039 3.39521L16.2887 3.72034L16.5677 4.11071L15.8848 5.47419C16.0097 5.71831 16.1222 5.96919 16.2201 6.22568L16.3573 6.6138L17.8041 7.09755L17.8794 7.5723C17.9616 8.04254 18.0032 8.51841 17.9998 8.99653C17.9998 9.34865 17.9751 9.71652 17.9222 10.117L17.8029 10.8944L16.3562 11.3781C16.2718 11.6403 16.174 11.8956 16.0615 12.1465L15.8837 12.5166L16.5666 13.8779L16.2865 14.2716C16.0086 14.6586 15.7003 15.0253 15.364 15.364C15.1165 15.6171 14.8386 15.8601 14.5202 16.1042L14.2727 16.2876L13.8824 16.5677L12.52 15.886C12.2725 16.0097 12.0216 16.1222 11.7674 16.219L11.3826 16.3551L10.9011 17.8029L10.4286 17.8783C9.95637 17.9566 9.47862 17.9973 8.99991 17.9998C8.64778 17.9998 8.27991 17.9751 7.87942 17.9222L7.10093 17.8029L6.61831 16.3551C6.32501 16.2612 6.03795 16.1488 5.75881 16.0187L5.48094 15.8826L4.11746 16.5655L3.72934 16.2842C3.34209 16.0056 2.97724 15.6972 2.6381 15.3617C2.3882 15.1107 2.15378 14.8447 1.9361 14.5652L1.71448 14.2693L1.43548 13.8812L2.1161 12.5211C1.98946 12.278 1.87678 12.0278 1.77861 11.7719L1.64361 11.3838L0.196873 10.8989L0.121499 10.4264C0.043545 9.95483 0.00291937 9.47786 0 8.99991C0 8.65003 0.0258747 8.28104 0.0776242 7.87829L0.121499 7.57005L0.196873 7.09755L1.64361 6.61943C1.72777 6.35916 1.8254 6.10345 1.9361 5.85331L2.11273 5.48207L1.42986 4.11858L1.71111 3.72709C2.19218 3.06452 2.761 2.47035 3.40196 1.96085L3.72821 1.71336L4.11633 1.43323L5.47869 2.11723C5.72394 1.99348 5.97369 1.88323 6.23018 1.78536L6.61831 1.64811L7.10093 0.199123L7.57342 0.123749C8.00092 0.0553494 8.37729 0.0171898 8.73538 0.00466195L9.00216 0ZM9.0079 1.1239L8.77474 1.129C8.61873 1.13446 8.45801 1.14564 8.28865 1.16309L7.9504 1.2049L7.51189 2.52542L6.63128 2.83646C6.48409 2.89263 6.33971 2.95343 6.19744 3.01921L5.98551 3.12163L5.47998 3.37672L4.22552 2.74615L4.10202 2.84155C3.63432 3.21332 3.21049 3.63658 2.84036 4.10041L2.74277 4.22778L3.36461 5.46942L2.96488 6.30863L2.83093 6.63386L2.71405 6.96561L2.53847 7.50857L1.20265 7.94928L1.19347 8.02169C1.15886 8.29108 1.13766 8.53907 1.12922 8.76901L1.125 8.99306C1.12671 9.27224 1.14309 9.55105 1.17437 9.83017L1.20377 10.0497L2.52476 10.4926L2.82901 11.369C2.88426 11.513 2.94495 11.6549 3.01094 11.7943L3.11389 12.0015L3.37924 12.5109L2.74727 13.7723L2.82366 13.8739C2.95012 14.0363 3.08308 14.1934 3.22037 14.3432L3.42928 14.5619C3.62757 14.7581 3.83589 14.9437 4.05429 15.1187L4.22777 15.2505L5.47545 14.6272L6.23409 14.999C6.39157 15.0724 6.55203 15.1392 6.71505 15.199L6.96144 15.2837L7.50508 15.4578L7.9504 16.7952L8.02669 16.8069C8.25894 16.8376 8.4782 16.8575 8.68738 16.8674L8.99397 16.8749C9.27332 16.8734 9.5523 16.8571 9.83177 16.8257L10.0496 16.7952L10.4887 15.478L11.3673 15.1675C11.5064 15.1146 11.6487 15.0544 11.7948 14.9868L12.0169 14.8798L12.5202 14.6281L13.7756 15.2562L13.8357 15.2115C14.0458 15.0503 14.2318 14.8931 14.4014 14.7328L14.5658 14.5711C14.7593 14.3764 14.9438 14.1692 15.1175 13.9521L15.2539 13.7712L14.6305 12.5275L15.035 11.6862C15.0985 11.5445 15.1566 11.4009 15.2096 11.2547L15.2853 11.0334L15.4597 10.4917L16.7951 10.044L16.8069 9.9698C16.8375 9.73754 16.8575 9.51828 16.8674 9.30498L16.8749 8.98862C16.877 8.68557 16.858 8.38013 16.8169 8.066L16.7985 7.94703L15.4798 7.50663L15.169 6.62678C15.1144 6.48366 15.0538 6.34095 14.9873 6.19895L14.8833 5.98654L14.624 5.47959L15.2539 4.2199L15.1611 4.09873C14.8015 3.64998 14.3954 3.24113 13.9515 2.88015L13.7689 2.7394L12.5289 3.36088L11.69 2.95873C11.5484 2.89584 11.403 2.8373 11.2541 2.78304L11.0279 2.70486L10.4905 2.52882L10.0463 1.20265L9.9292 1.18581C9.72191 1.15949 9.51484 1.14168 9.30821 1.13244L9.0079 1.1239Z" fill="var(--fill-0, #181C25)"/>
</g>
</svg>
