<svg preserveAspectRatio="none" width="100%" height="100%" overflow="visible" style="display: block;" viewBox="0 0 17.2727 16.875" fill="none" xmlns="http://www.w3.org/2000/svg">
<g id="Vector">
<path d="M8.4375 1.12395C4.39892 1.12395 1.125 4.39787 1.125 8.43645C1.125 12.475 4.39892 15.749 8.4375 15.749C12.4761 15.749 15.75 12.475 15.75 8.43645C15.75 8.092 15.7262 7.7531 15.6801 7.42132L16.6419 6.45955C16.7943 7.09398 16.875 7.75632 16.875 8.4375C16.875 13.0974 13.0974 16.875 8.4375 16.875C3.7776 16.875 0 13.0974 0 8.4375C0 3.7776 3.7776 0 8.4375 0C10.3266 0 12.0707 0.620828 13.4769 1.66959L12.6722 2.47423C11.4773 1.62397 10.0158 1.12395 8.4375 1.12395Z" fill="var(--fill-0, #181C25)"/>
<path d="M4.66475 7.7092L5.46025 6.91371L8.4375 9.89096L16.4773 1.85121L17.2727 2.6467L8.4375 11.4819L4.66475 7.7092Z" fill="var(--fill-0, #181C25)"/>
</g>
</svg>
