<svg preserveAspectRatio="none" width="100%" height="100%" overflow="visible" style="display: block;" viewBox="0 0 14 14" fill="none" xmlns="http://www.w3.org/2000/svg">
<g id="&#229;&#184;&#184;&#232;&#167;&#132;&#230;&#147;&#141;&#228;&#189;&#156;/&#230;&#144;&#156;&#231;&#180;&#162;">
<g id="Vector">
<path d="M6.12467 1.74967C3.70843 1.74967 1.74967 3.70843 1.74967 6.12467C1.74967 8.54092 3.70843 10.4997 6.12467 10.4997C8.54092 10.4997 10.4997 8.54092 10.4997 6.12467C10.4997 3.70843 8.54092 1.74967 6.12467 1.74967ZM0.583008 6.12467C0.583008 3.0641 3.0641 0.583008 6.12467 0.583008C9.18525 0.583008 11.6663 3.0641 11.6663 6.12467C11.6663 9.18525 9.18525 11.6663 6.12467 11.6663C3.0641 11.6663 0.583008 9.18525 0.583008 6.12467Z" fill="var(--fill-0, #181C25)"/>
<path d="M9.33301 9.33301C9.56081 9.1052 9.93016 9.1052 10.158 9.33301L13.1247 12.2997C13.3525 12.5275 13.3525 12.8969 13.1247 13.1247C12.8969 13.3525 12.5275 13.3525 12.2997 13.1247L9.33301 10.158C9.1052 9.93016 9.1052 9.56081 9.33301 9.33301Z" fill="var(--fill-0, #181C25)"/>
</g>
</g>
</svg>
