<svg preserveAspectRatio="none" width="100%" height="100%" overflow="visible" style="display: block;" viewBox="0 0 18 18" fill="none" xmlns="http://www.w3.org/2000/svg">
<g id="AI&#232;&#175;&#173;&#233;&#159;&#179;">
<path id="Union" d="M4.48633 8.88038C4.48633 11.3325 6.47375 13.3206 8.92578 13.3208C11.3037 13.3208 13.2459 11.4513 13.3613 9.10206L13.3662 8.88038V7.771H14.4766V8.88038C14.4766 11.7583 12.286 14.1252 9.48145 14.4038V16.6509H11.7012V17.7612H6.15137V16.6509H8.37109V14.4038C5.56646 14.1253 3.37598 11.7583 3.37598 8.88038V7.771H4.48633V8.88038ZM8.92578 1.11085C7.75587 1.11106 6.79705 2.01635 6.71191 3.16456L6.70605 3.33057V8.88038C6.70605 10.1063 7.69986 11.1009 8.92578 11.1011C10.0962 11.1011 11.0559 10.1951 11.1406 9.04639L11.1465 8.88038V5.93409H12.2559V8.88038C12.2559 10.7195 10.7649 12.2105 8.92578 12.2105C7.08681 12.2102 5.5957 10.7194 5.5957 8.88038V3.33057C5.59598 1.49178 7.08698 0.000723334 8.92578 0.000494536V1.11085ZM11.9863 0.000494536C12.1785 -0.0116547 12.2348 0.204996 12.3105 0.499518V0.501471C12.3918 0.817322 12.4974 1.22194 12.8164 1.53077C13.1297 1.83264 13.5316 1.92942 13.8545 2.00635C14.1683 2.08113 14.4079 2.13889 14.4199 2.35108C14.4319 2.57184 14.1709 2.65935 13.8438 2.76905C13.5357 2.87236 13.1689 2.99642 12.915 3.26905C12.6664 3.53573 12.5608 3.86362 12.4736 4.13721C12.3773 4.43982 12.3021 4.67555 12.0771 4.68604C11.8729 4.69582 11.8203 4.50236 11.7471 4.23389L11.7461 4.23194C11.6661 3.93847 11.5618 3.55436 11.208 3.24854C10.8766 2.96312 10.5133 2.85727 10.2295 2.77393L10.2246 2.77198C9.929 2.68519 9.71904 2.62296 9.71875 2.41065C9.71881 2.21065 9.92263 2.16097 10.2002 2.09522H10.2021C10.5031 2.02392 10.8907 1.93209 11.2002 1.60401C11.5089 1.2757 11.6019 0.863306 11.6748 0.539557C11.7425 0.238593 11.7944 0.0133277 11.9863 0.000494536Z" fill="url(#paint0_linear_0_895)"/>
</g>
<defs>
<linearGradient id="paint0_linear_0_895" x1="5.39426" y1="6.05481" x2="13.3068" y2="6.54376" gradientUnits="userSpaceOnUse">
<stop stop-color="#31BCFF"/>
<stop offset="0.330957" stop-color="#9676FF"/>
<stop offset="0.444948" stop-color="#BE64FE"/>
<stop offset="0.547088" stop-color="#E157CB"/>
<stop offset="0.669224" stop-color="#EF5794"/>
<stop offset="0.80036" stop-color="#FD683F"/>
<stop offset="0.911108" stop-color="#FE7C2B"/>
<stop offset="1" stop-color="#FFA10B"/>
</linearGradient>
</defs>
</svg>
