<svg preserveAspectRatio="none" width="100%" height="100%" overflow="visible" style="display: block;" viewBox="0 0 13.3333 13.3333" fill="none" xmlns="http://www.w3.org/2000/svg">
<g id="Vector">
<path d="M9.33333 3.33333C9.70152 3.33333 10 3.63181 10 4V9.33333C10 9.70152 9.70152 10 9.33333 10C8.96514 10 8.66667 9.70152 8.66667 9.33333V4C8.66667 3.63181 8.96514 3.33333 9.33333 3.33333Z" fill="var(--fill-0, #737C8C)"/>
<path d="M0.666667 0H12.6667C13.0349 0 13.3333 0.298477 13.3333 0.666667V12.6667C13.3333 13.0349 13.0349 13.3333 12.6667 13.3333H0.666667C0.298477 13.3333 0 13.0349 0 12.6667V0.666667C0 0.298477 0.298477 0 0.666667 0ZM1.33333 1.33333V12H12V1.33333H1.33333Z" fill="var(--fill-0, #737C8C)"/>
</g>
</svg>
