<svg preserveAspectRatio="none" width="100%" height="100%" overflow="visible" style="display: block;" viewBox="0 0 18 18" fill="none" xmlns="http://www.w3.org/2000/svg">
<g id="AI&#232;&#175;&#173;&#233;&#159;&#179;">
<path id="Union" d="M4.48486 8.87988C4.48491 11.3319 6.4723 13.3201 8.92432 13.3203C11.302 13.3201 13.2444 11.4506 13.3599 9.10156L13.3647 8.87988V7.77051H14.4751V8.87988C14.4751 11.7576 12.2843 14.1245 9.47998 14.4033V16.6504H11.6997V17.7607H6.1499V16.6504H8.36963V14.4033C5.56498 14.1248 3.37456 11.7578 3.37451 8.87988V7.77051H4.48486V8.87988ZM8.92432 0C9.18943 3.67138e-05 9.44761 0.031272 9.69482 0.0898438V1.25C9.45467 1.16106 9.19535 1.11041 8.92432 1.11035C7.75423 1.11055 6.79537 2.01563 6.71045 3.16406L6.70459 3.33008V8.87988C6.70464 10.1058 7.69841 11.1004 8.92432 11.1006C10.0945 11.1003 11.0544 10.1944 11.1392 9.0459L11.145 8.87988V6.80566H12.2544V8.87988C12.2543 10.7189 10.7632 12.2097 8.92432 12.21C7.08535 12.2098 5.59429 10.7189 5.59424 8.87988V3.33008C5.59426 1.49105 7.08533 0.000204598 8.92432 0ZM11.9858 0.000976562C12.1777 -0.0109901 12.2343 0.205753 12.3101 0.5V0.501953C12.3913 0.817811 12.4969 1.22241 12.8159 1.53125C13.1293 1.8332 13.5311 1.92989 13.854 2.00684C14.1675 2.08155 14.4081 2.13972 14.4204 2.35156C14.4323 2.57208 14.1709 2.65998 13.8442 2.76953C13.5363 2.8728 13.1684 2.99714 12.9146 3.26953C12.6662 3.53598 12.5612 3.86428 12.4741 4.1377C12.3779 4.43996 12.302 4.67553 12.0776 4.68652C11.873 4.69659 11.8198 4.50305 11.7466 4.23438L11.7456 4.23145C11.6656 3.9381 11.5609 3.55456 11.2075 3.24902C10.8764 2.96395 10.5137 2.8577 10.23 2.77441L10.2241 2.77246C9.92853 2.68567 9.71857 2.62342 9.71826 2.41113C9.71861 2.21139 9.92312 2.16145 10.2007 2.0957H10.2017C10.5027 2.0244 10.8914 1.93262 11.2007 1.60449C11.509 1.27629 11.6015 0.863614 11.6743 0.540039C11.742 0.23933 11.794 0.0138023 11.9858 0.000976562Z" fill="url(#paint0_linear_0_271)"/>
</g>
<defs>
<linearGradient id="paint0_linear_0_271" x1="3.36175" y1="8.88047" x2="14.4856" y2="8.88047" gradientUnits="userSpaceOnUse">
<stop stop-color="#4F68FF"/>
<stop offset="1" stop-color="#8048FF"/>
</linearGradient>
</defs>
</svg>
