<svg preserveAspectRatio="none" width="100%" height="100%" overflow="visible" style="display: block;" viewBox="0 0 10.4712 10.5687" fill="none" xmlns="http://www.w3.org/2000/svg">
<path id="Vector" d="M4.90697 10.2761C4.57237 9.19609 3.97969 8.21384 3.18018 7.41434C2.38068 6.61483 1.39843 6.02215 0.318403 5.68755C0.220879 5.68755 0.123355 5.59002 0.0258316 5.39497C-0.0713112 5.19955 0.122974 5.00412 0.318403 4.90697C1.39843 4.57237 2.38068 3.97969 3.18018 3.18018C3.97969 2.38068 4.57237 1.39843 4.90697 0.318403C4.90697 0.220879 5.0045 0.123355 5.19955 0.0258316C5.39497 -0.0713113 5.5904 0.122975 5.68755 0.318403C6.02215 1.39843 6.61483 2.38068 7.41434 3.18018C8.21384 3.97969 9.19609 4.57237 10.2761 4.90697C10.3367 4.95243 10.3858 5.01137 10.4197 5.07911C10.4535 5.14684 10.4712 5.22153 10.4712 5.29726C10.4712 5.37299 10.4535 5.44768 10.4197 5.51542C10.3858 5.58315 10.3367 5.64209 10.2761 5.68755C9.19609 6.02215 8.21384 6.61483 7.41434 7.41434C6.61483 8.21384 6.02215 9.19609 5.68755 10.2761C5.68755 10.4715 5.49212 10.5687 5.29669 10.5687C5.10126 10.5687 4.90697 10.4715 4.90697 10.2761Z" fill="url(#paint0_radial_0_440)"/>
<defs>
<radialGradient id="paint0_radial_0_440" cx="0" cy="0" r="1" gradientUnits="userSpaceOnUse" gradientTransform="translate(1.75392 10.5684) scale(11.5183 11.6252)">
<stop stop-color="#0099FF"/>
<stop offset="0.6" stop-color="#A033FF"/>
<stop offset="0.9" stop-color="#FF5280"/>
<stop offset="1" stop-color="#FF7061"/>
</radialGradient>
</defs>
</svg>
