<svg preserveAspectRatio="none" width="100%" height="100%" overflow="visible" style="display: block;" viewBox="0 0 3.42765 3.42765" fill="none" xmlns="http://www.w3.org/2000/svg">
<path id="Vector" d="M1.58171 3.35565C1.47329 2.99943 1.27886 2.67537 1.01556 2.41208C0.752272 2.14879 0.428217 1.95435 0.0719995 1.84593C0.0499931 1.82884 0.0321007 1.80703 0.01964 1.78211C0.00717925 1.75719 0.000468116 1.72979 0 1.70193C0 1.6665 0.0354281 1.62993 0.0719995 1.5945C0.428217 1.48608 0.752272 1.29165 1.01556 1.02835C1.27886 0.765062 1.47329 0.441008 1.58171 0.0847897C1.58304 0.066133 1.59105 0.0485812 1.60428 0.0353555C1.61751 0.0221299 1.63506 0.0141178 1.65371 0.0127897C1.67011 0.00497232 1.68796 0.000639823 1.70611 6.5658e-05C1.72427 -0.000508507 1.74235 0.00268817 1.75921 0.00945387C1.77607 0.0162196 1.79135 0.0264074 1.80407 0.0393741C1.8168 0.0523408 1.8267 0.0678047 1.83314 0.0847897C1.94156 0.441008 2.136 0.765062 2.39929 1.02835C2.66258 1.29165 2.98664 1.48608 3.34286 1.5945C3.36151 1.59583 3.37907 1.60384 3.39229 1.61707C3.40552 1.6303 3.41353 1.64785 3.41486 1.6665C3.42267 1.6829 3.42701 1.70075 3.42758 1.7189C3.42815 1.73706 3.42496 1.75514 3.41819 1.772C3.41143 1.78886 3.40124 1.80414 3.38827 1.81686C3.37531 1.82959 3.35984 1.83949 3.34286 1.84593C2.98579 1.95371 2.66081 2.14785 2.39668 2.41119C2.13255 2.67452 1.93742 2.99891 1.82857 3.35565C1.79314 3.39108 1.75657 3.42765 1.72114 3.42765C1.61714 3.42765 1.58171 3.39108 1.58171 3.35565Z" fill="url(#paint0_radial_0_437)"/>
<defs>
<radialGradient id="paint0_radial_0_437" cx="0" cy="0" r="1" gradientUnits="userSpaceOnUse" gradientTransform="translate(0.574131 3.42755) scale(3.77041 3.77031)">
<stop stop-color="#0099FF"/>
<stop offset="0.6" stop-color="#A033FF"/>
<stop offset="0.9" stop-color="#FF5280"/>
<stop offset="1" stop-color="#FF7061"/>
</radialGradient>
</defs>
</svg>
