<svg preserveAspectRatio="none" width="100%" height="100%" overflow="visible" style="display: block;" viewBox="0 0 4.57065 4.57293" fill="none" xmlns="http://www.w3.org/2000/svg">
<path id="Vector" d="M2.10857 4.47693C1.96405 4.00206 1.70486 3.57006 1.35387 3.21907C1.00287 2.86808 0.570875 2.60888 0.0959997 2.46436C0.0663999 2.4413 0.0423923 2.41185 0.0257692 2.3782C0.00914619 2.34456 0.00033744 2.3076 0 2.27008C0 2.22208 0.0479997 2.17408 0.0959997 2.12608C0.570875 1.98156 1.00287 1.72236 1.35387 1.37137C1.70486 1.02038 1.96405 0.588381 2.10857 0.113506C2.11018 0.0885751 2.12082 0.0650833 2.13848 0.0474175C2.15615 0.0297516 2.17964 0.0191189 2.20457 0.0175055C2.22646 0.00689521 2.25033 0.00097031 2.27464 0.000109498C2.29896 -0.000751314 2.32318 0.00347091 2.34577 0.0125063C2.36836 0.0215417 2.38881 0.0351914 2.40583 0.0525826C2.42284 0.0699737 2.43604 0.0907243 2.44457 0.113506C2.58877 0.588803 2.84782 1.02127 3.19883 1.37268C3.54984 1.72409 3.98201 1.98363 4.45714 2.12836C4.48207 2.12998 4.50557 2.14061 4.52323 2.15827C4.5409 2.17594 4.55153 2.19943 4.55314 2.22436C4.56375 2.24626 4.56968 2.27012 4.57054 2.29444C4.5714 2.31875 4.56718 2.34297 4.55814 2.36556C4.54911 2.38815 4.53546 2.40861 4.51807 2.42562C4.50067 2.44263 4.47992 2.45583 4.45714 2.46436C3.98227 2.60888 3.55027 2.86808 3.19928 3.21907C2.84828 3.57006 2.58909 4.00206 2.44457 4.47693C2.39657 4.52493 2.34857 4.57293 2.30057 4.57293C2.15657 4.57293 2.10857 4.52493 2.10857 4.47693Z" fill="url(#paint0_radial_0_438)"/>
<defs>
<radialGradient id="paint0_radial_0_438" cx="0" cy="0" r="1" gradientUnits="userSpaceOnUse" gradientTransform="translate(0.765583 4.57281) scale(5.02771 5.03009)">
<stop stop-color="#0099FF"/>
<stop offset="0.6" stop-color="#A033FF"/>
<stop offset="0.9" stop-color="#FF5280"/>
<stop offset="1" stop-color="#FF7061"/>
</radialGradient>
</defs>
</svg>
