<svg preserveAspectRatio="none" width="100%" height="100%" overflow="visible" style="display: block;" viewBox="0 0 14 14" fill="none" xmlns="http://www.w3.org/2000/svg">
<path id="Union" fill-rule="evenodd" clip-rule="evenodd" d="M2 0H12C13.1046 0 14 0.895431 14 2V12C14 13.1046 13.1046 14 12 14H2C0.89543 14 0 13.1046 0 12V2C0 0.89543 0.895431 0 2 0ZM2 1C1.44772 1 1 1.44772 1 2V12C1 12.5523 1.44772 13 2 13H12C12.5523 13 13 12.5523 13 12V2C13 1.44772 12.5523 1 12 1H2ZM11 7.5H8C7.94357 7.5 7.88933 7.50935 7.83874 7.52658C7.76845 7.55045 7.70241 7.59041 7.64637 7.64645C7.54652 7.7463 7.49773 7.87787 7.5 8.00873V11C7.5 11.2761 7.72386 11.5 8 11.5C8.27614 11.5 8.5 11.2761 8.5 11V9.20718L10.6464 11.3536C10.8416 11.5488 11.1582 11.5488 11.3535 11.3536C11.5487 11.1583 11.5487 10.8417 11.3535 10.6464L9.20703 8.5H11C11.2761 8.5 11.5 8.27614 11.5 8C11.5 7.72386 11.2761 7.5 11 7.5ZM5.99961 6.5L3 6.5C2.72386 6.5 2.5 6.27614 2.5 6C2.5 5.72386 2.72386 5.5 3 5.5L4.79297 5.5L2.64652 3.35355C2.45126 3.15829 2.45126 2.84171 2.64652 2.64645C2.84178 2.45118 3.15837 2.45118 3.35363 2.64645L5.5 4.79282L5.5 3C5.5 2.72386 5.72386 2.5 6 2.5C6.27614 2.5 6.5 2.72386 6.5 3L6.5 5.99128C6.50227 6.12213 6.45348 6.2537 6.35363 6.35355C6.29747 6.40971 6.23127 6.44972 6.16081 6.47358C6.11809 6.48808 6.07277 6.49697 6.02573 6.49935C6.01721 6.49978 6.00863 6.5 6 6.5H5.99961Z" fill="var(--fill-0, #333333)"/>
</svg>
