<svg preserveAspectRatio="none" width="100%" height="100%" overflow="visible" style="display: block;" viewBox="0 0 14 13" fill="none" xmlns="http://www.w3.org/2000/svg">
<g id="Vector">
<path d="M0 10V0H3.882C5.20985 0 6.37064 0.715333 7 1.78166C7.62937 0.715333 8.79014 0 10.118 0H14V10H10.118C9.14964 10 8.27013 10.3804 7.62079 11H6.37921C5.72987 10.3804 4.85036 10 3.882 10H0ZM6.5 3.618C6.5 2.17212 5.32788 1 3.882 1H1V9H3.882C4.83311 9 5.74033 9.28959 6.5 9.81325V3.618ZM7.5 9.81325C8.25967 9.28959 9.16689 9 10.118 9H13V1H10.118C8.67212 1 7.5 2.17212 7.5 3.618V9.81325Z" fill="var(--fill-0, #87CC3B)"/>
<path d="M7.5243 12H6.47588C5.77284 11.2555 4.88461 11 3.9375 11H0V12H3.9375C4.647 12 5.32726 12.1831 5.87167 12.8238L6.02142 13H7.97876L8.12851 12.8238C8.67292 12.1831 9.353 12 10.0625 12H14V11H10.0625C9.11539 11 8.22734 11.2555 7.5243 12Z" fill="var(--fill-0, #87CC3B)"/>
</g>
</svg>
