<svg preserveAspectRatio="none" width="100%" height="100%" overflow="visible" style="display: block;" viewBox="0 0 14.625 18" fill="none" xmlns="http://www.w3.org/2000/svg">
<path id="Vector" fill-rule="evenodd" clip-rule="evenodd" d="M8.4375 2.25V2.35394C8.82686 2.42684 9.20313 2.53688 9.5625 2.68024V2.25C9.5625 1.00736 8.55514 0 7.3125 0C6.06986 0 5.0625 1.00736 5.0625 2.25V2.68029C2.82125 3.57444 1.2375 5.76477 1.2375 8.325V11.8125L0 13.5V15.1875H4.5C4.5 16.7408 5.7592 18 7.3125 18C8.8658 18 10.125 16.7408 10.125 15.1875H14.625V13.5L13.3875 11.8125L13.3875 8.325C13.3875 4.96987 10.6676 2.25 7.3125 2.25C6.92812 2.25 6.55207 2.2857 6.1875 2.35396V2.25C6.1875 1.62868 6.69118 1.125 7.3125 1.125C7.93382 1.125 8.4375 1.62868 8.4375 2.25ZM12.2625 12.1808L12.2625 8.325C12.2625 5.59119 10.0463 3.375 7.3125 3.375C4.57869 3.375 2.3625 5.59119 2.3625 8.325V12.1808L1.125 13.8683V14.0625H13.5V13.8683L12.2625 12.1808ZM7.3125 16.875C6.38052 16.875 5.625 16.1195 5.625 15.1875H9C9 16.1195 8.24448 16.875 7.3125 16.875Z" fill="var(--fill-0, #181C25)"/>
</svg>
