<svg preserveAspectRatio="none" width="100%" height="100%" overflow="visible" style="display: block;" viewBox="0 0 16.875 15.75" fill="none" xmlns="http://www.w3.org/2000/svg">
<g id="Vector">
<path d="M6.1875 10.5038L7.46539 10.3714C7.5019 10.6605 7.60991 10.8895 7.78943 11.0583C7.96894 11.2272 8.17584 11.3116 8.41012 11.3116C8.67787 11.3116 8.90454 11.2028 9.09014 10.9853C9.27574 10.7677 9.36853 10.4399 9.36853 10.0018C9.36853 9.59102 9.2765 9.28296 9.09242 9.07759C8.90834 8.87221 8.66874 8.76952 8.37361 8.76952C8.00545 8.76952 7.67533 8.9323 7.38324 9.25786L6.34267 9.10725L6.99987 5.625H10.3908V6.8253H7.97198L7.77117 7.96171C8.05718 7.81871 8.34926 7.74721 8.64744 7.74721C9.21641 7.74721 9.69865 7.95411 10.0942 8.3679C10.4897 8.7817 10.6875 9.31871 10.6875 9.97895C10.6875 10.5297 10.5278 11.021 10.2083 11.4531C9.7732 12.0434 9.16925 12.3385 8.39642 12.3385C7.77877 12.3385 7.27523 12.1727 6.88578 11.841C6.49632 11.5094 6.26357 11.0636 6.1875 10.5038Z" fill="var(--fill-0, #181C25)"/>
<path d="M12.375 1.125V0H13.5V1.125H16.875V15.75H0V1.125H3.375V0H4.5V1.125H12.375ZM4.5 3.375H3.375V2.25H1.125V14.625H15.75V2.25H13.5V3.375H12.375V2.25H4.5V3.375Z" fill="var(--fill-0, #181C25)"/>
</g>
</svg>
