<svg preserveAspectRatio="none" width="100%" height="100%" overflow="visible" style="display: block;" viewBox="0 0 9.75 9.75" fill="none" xmlns="http://www.w3.org/2000/svg">
<g id="Vector">
<path d="M0.145124 9.60488C-0.0483747 9.41138 -0.0483748 9.09765 0.145124 8.90415L8.90415 0.145124C9.09765 -0.0483747 9.41138 -0.0483747 9.60488 0.145124C9.79837 0.338623 9.79837 0.652348 9.60488 0.845847L0.845847 9.60488C0.652348 9.79837 0.338623 9.79837 0.145124 9.60488Z" fill="#181C25"/>
<path d="M0.145124 0.845847C-0.0483748 0.652348 -0.0483747 0.338623 0.145124 0.145124C0.338623 -0.0483747 0.652348 -0.0483748 0.845847 0.145124L9.60488 8.90415C9.79837 9.09765 9.79837 9.41138 9.60488 9.60488C9.41138 9.79837 9.09765 9.79837 8.90415 9.60488L0.145124 0.845847Z" fill="#181C25"/>
</g>
</svg>
