<svg preserveAspectRatio="none" width="100%" height="100%" overflow="visible" style="display: block;" viewBox="0 0 14 13.125" fill="none" xmlns="http://www.w3.org/2000/svg">
<g id="Vector">
<path d="M1.05 13.125L1.42536 10.5321C0.530951 9.42983 0 8.0543 0 6.5625C0 2.93813 3.13401 0 7 0C10.866 0 14 2.93813 14 6.5625C14 10.1869 10.866 13.125 7 13.125C5.87231 13.125 4.8069 12.875 3.86339 12.4309L1.05 13.125ZM3.95517 11.507L4.23602 11.6392C5.08484 12.0388 6.0251 12.25 7 12.25C10.3949 12.25 13.125 9.69055 13.125 6.5625C13.125 3.43445 10.3949 0.875 7 0.875C3.60508 0.875 0.875 3.43445 0.875 6.5625C0.875 7.81277 1.30996 9.00119 2.10481 9.98075L2.34622 10.2783L2.10216 11.9642L3.95517 11.507Z" fill="var(--fill-0, #FF8000)"/>
</g>
</svg>
