<svg preserveAspectRatio="none" width="100%" height="100%" overflow="visible" style="display: block;" viewBox="0 0 17.25 17.25" fill="none" xmlns="http://www.w3.org/2000/svg">
<g id="Vector">
<path d="M7.47695 3.60336C8.02513 3.3763 8.62833 3.31689 9.21027 3.43265C9.79221 3.5484 10.3268 3.83412 10.7463 4.25368C11.1659 4.67324 11.4516 5.20779 11.5674 5.78973C11.6831 6.37167 11.6237 6.97487 11.3966 7.52305C11.1696 8.07123 10.7851 8.53976 10.2917 8.86941C10.0777 9.01243 9.84728 9.12653 9.60659 9.20987C9.51466 9.2417 9.44299 9.29185 9.40314 9.33602C9.38352 9.35776 9.37693 9.37123 9.375 9.37688V9.91071C9.375 10.3249 9.03921 10.6607 8.625 10.6607C8.21079 10.6607 7.875 10.3249 7.875 9.91071V9.375C7.875 8.5113 8.56673 7.98255 9.1158 7.79243C9.23615 7.75076 9.35133 7.69372 9.45836 7.6222C9.70503 7.45738 9.89729 7.22312 10.0108 6.94903C10.1243 6.67494 10.1541 6.37334 10.0962 6.08237C10.0383 5.79139 9.89544 5.52412 9.68566 5.31434C9.47588 5.10456 9.20861 4.9617 8.91764 4.90382C8.62666 4.84595 8.32506 4.87565 8.05097 4.98918C7.77689 5.10271 7.54262 5.29497 7.3778 5.54165C7.21297 5.78832 7.125 6.07833 7.125 6.375C7.125 6.78921 6.78921 7.125 6.375 7.125C5.96079 7.125 5.625 6.78921 5.625 6.375C5.625 5.78166 5.80095 5.20164 6.13059 4.70829C6.46024 4.21494 6.92877 3.83043 7.47695 3.60336Z" fill="var(--fill-0, #181C25)"/>
<path d="M9.75 12.75C9.75 13.3713 9.24632 13.875 8.625 13.875C8.00368 13.875 7.5 13.3713 7.5 12.75C7.5 12.1287 8.00368 11.625 8.625 11.625C9.24632 11.625 9.75 12.1287 9.75 12.75Z" fill="var(--fill-0, #181C25)"/>
<path d="M8.625 15.75C4.68997 15.75 1.5 12.56 1.5 8.625C1.5 4.68997 4.68997 1.5 8.625 1.5C12.56 1.5 15.75 4.68997 15.75 8.625C15.75 12.56 12.56 15.75 8.625 15.75ZM8.625 17.25C13.3885 17.25 17.25 13.3885 17.25 8.625C17.25 3.86154 13.3885 0 8.625 0C3.86154 0 0 3.86154 0 8.625C0 13.3885 3.86154 17.25 8.625 17.25Z" fill="var(--fill-0, #181C25)"/>
</g>
</svg>
