<svg preserveAspectRatio="none" width="100%" height="100%" overflow="visible" style="display: block;" viewBox="0 0 11.375 13.5993" fill="none" xmlns="http://www.w3.org/2000/svg">
<path id="Vector" d="M0.894091 8.75L0.940844 8.82183C1.14553 9.13118 2.51548 10.6321 5.05071 13.3246C5.39556 13.6909 5.97944 13.6909 6.32429 13.3246C8.85952 10.6321 10.2295 9.13118 10.4342 8.82183L10.4809 8.75C11.0469 7.86599 11.375 6.81506 11.375 5.6875C11.375 2.54638 8.82862 0 5.6875 0C2.54638 0 0 2.54638 0 5.6875C0 6.81506 0.328122 7.86599 0.894091 8.75ZM3.0625 5.6C3.0625 4.15025 4.23775 2.975 5.6875 2.975C7.13725 2.975 8.3125 4.15025 8.3125 5.6C8.3125 7.04975 7.13725 8.225 5.6875 8.225C4.23775 8.225 3.0625 7.04975 3.0625 5.6Z" fill="var(--fill-0, #FF8000)"/>
</svg>
