<svg preserveAspectRatio="none" width="100%" height="100%" overflow="visible" style="display: block;" viewBox="0 0 9 11" fill="none" xmlns="http://www.w3.org/2000/svg">
<g id="Vector">
<path d="M4 7C4 6.72386 4.22386 6.5 4.5 6.5C4.77614 6.5 5 6.72386 5 7V8.5C5 8.77614 4.77614 9 4.5 9C4.22386 9 4 8.77614 4 8.5V7Z" fill="var(--fill-0, #181C25)"/>
<path d="M4 0C2.61929 0 1.5 1.11929 1.5 2.5V4.5H0.5C0.223858 4.5 0 4.72386 0 5V10.5C0 10.7761 0.223858 11 0.5 11H8.5C8.77614 11 9 10.7761 9 10.5V5C9 4.72386 8.77614 4.5 8.5 4.5H7.5V2.4975L6.5 2.4975V4.5H2.5V2.5C2.5 1.67157 3.17157 1 4 1H5C5.82843 1 6.5 1.66907 6.5 2.4975L7.5 2.4975C7.5 1.11679 6.38071 0 5 0H4ZM7.95 5.5V10H1.05V5.5H7.95Z" fill="var(--fill-0, #181C25)"/>
</g>
</svg>
