<svg preserveAspectRatio="none" width="100%" height="100%" overflow="visible" style="display: block;" viewBox="0 0 13.125 13.125" fill="none" xmlns="http://www.w3.org/2000/svg">
<g id="Vector">
<path d="M6.5625 9.625C7.77062 9.625 8.75 8.64562 8.75 7.4375C8.75 6.22938 7.77062 5.25 6.5625 5.25C5.35438 5.25 4.375 6.22938 4.375 7.4375C4.375 8.64562 5.35438 9.625 6.5625 9.625Z" fill="var(--fill-0, #FF8000)"/>
<path d="M6.5625 4.375C7.77062 4.375 8.75 3.39562 8.75 2.1875C8.75 0.979377 7.77062 0 6.5625 0C5.35438 0 4.375 0.979377 4.375 2.1875C4.375 3.39562 5.35438 4.375 6.5625 4.375Z" fill="var(--fill-0, #FF8000)"/>
<path d="M2.1875 12.25C3.39562 12.25 4.375 11.2706 4.375 10.0625C4.375 8.85438 3.39562 7.875 2.1875 7.875C0.979377 7.875 0 8.85438 0 10.0625C0 11.2706 0.979377 12.25 2.1875 12.25Z" fill="var(--fill-0, #FF8000)"/>
<path d="M10.9375 12.25C12.1456 12.25 13.125 11.2706 13.125 10.0625C13.125 8.85438 12.1456 7.875 10.9375 7.875C9.72938 7.875 8.75 8.85438 8.75 10.0625C8.75 11.2706 9.72938 12.25 10.9375 12.25Z" fill="var(--fill-0, #FF8000)"/>
<path d="M9.59407 2.62443C9.5499 2.93359 9.45957 3.22787 9.33026 3.50005C10.4624 4.2973 11.2352 5.57045 11.3579 7.02862C11.6724 7.07179 11.9717 7.16273 12.2482 7.29387C12.1995 5.32695 11.1521 3.60786 9.59407 2.62443Z" fill="var(--fill-0, #FF8000)"/>
<path d="M9.11301 12.5224C8.86302 12.3367 8.64232 12.1138 8.45909 11.8619C7.87711 12.1117 7.23596 12.25 6.5625 12.25C5.88904 12.25 5.24789 12.1117 4.66591 11.8619C4.48268 12.1138 4.26198 12.3367 4.01199 12.5224C4.77909 12.908 5.64545 13.125 6.5625 13.125C7.47955 13.125 8.34591 12.908 9.11301 12.5224Z" fill="var(--fill-0, #FF8000)"/>
<path d="M3.79474 3.50005C2.66264 4.2973 1.88981 5.57045 1.76713 7.02862C1.4526 7.07179 1.1533 7.16273 0.876778 7.29387C0.925532 5.32695 1.97286 3.60786 3.53093 2.62443C3.5751 2.93359 3.66543 3.22787 3.79474 3.50005Z" fill="var(--fill-0, #FF8000)"/>
</g>
</svg>
