<svg preserveAspectRatio="none" width="100%" height="100%" overflow="visible" style="display: block;" viewBox="0 0 15.9333 16" fill="none" xmlns="http://www.w3.org/2000/svg">
<g id="Frame">
<path id="Vector" d="M14.0744 13.3327L11.3525 10.5993C11.2861 10.5327 11.2861 10.5327 11.2197 10.5327L13.8753 7.866C13.9662 7.76788 14.0366 7.6524 14.0822 7.52642C14.1278 7.40044 14.1478 7.26653 14.1408 7.13267C14.1418 7.00312 14.1123 6.87518 14.0546 6.75931C13.9969 6.64344 13.9127 6.54293 13.8089 6.466C13.1808 5.94388 12.4341 5.58552 11.635 5.4227C10.8359 5.25989 10.0091 5.29766 9.22806 5.53267L6.83806 3.666C6.8161 3.14425 6.65566 2.63789 6.37333 2.19933C6.30694 2.13267 6.30694 2.066 6.24056 2.066C6.05675 1.90457 5.82085 1.8156 5.57667 1.8156C5.33248 1.8156 5.09659 1.90457 4.91278 2.066L2.05806 4.866C1.95462 4.9549 1.87581 5.06913 1.82929 5.19761C1.78276 5.3261 1.77009 5.46448 1.7925 5.59933C1.80391 5.73359 1.84573 5.86346 1.91476 5.979C1.9838 6.09455 2.07823 6.19271 2.19083 6.266C2.62756 6.54951 3.13182 6.71062 3.65139 6.73267L5.51028 9.13267C5.28742 9.92258 5.2617 10.7554 5.43538 11.5577C5.60905 12.36 5.97679 13.107 6.50611 13.7327L6.5725 13.7993C6.75149 13.9705 6.98921 14.066 7.23639 14.066C7.48357 14.066 7.72128 13.9705 7.90028 13.7993L10.4894 11.1327C10.4894 11.1993 10.5558 11.1993 10.5558 11.266L13.2778 13.9993C13.3673 14.0849 13.4861 14.1327 13.6097 14.1327C13.7333 14.1327 13.8522 14.0849 13.9417 13.9993C13.9967 13.9668 14.0443 13.9229 14.0814 13.8706C14.1184 13.8183 14.144 13.7587 14.1565 13.6958C14.1691 13.6329 14.1682 13.568 14.1541 13.5054C14.1399 13.4429 14.1128 13.384 14.0744 13.3327ZM7.23639 13.066C6.80683 12.5317 6.52037 11.896 6.40418 11.2193C6.28799 10.5426 6.34593 9.84725 6.5725 9.19933L6.63889 8.93267L4.11611 5.73267H3.78417C3.43392 5.73901 3.08892 5.64663 2.78833 5.466L5.51028 2.73267C5.69854 3.05541 5.7907 3.42559 5.77583 3.79933V4.066L8.9625 6.59933L9.22806 6.53267C9.87327 6.30515 10.5657 6.24696 11.2396 6.36364C11.9135 6.48032 12.5465 6.76798 13.0786 7.19933L7.23639 13.066Z" fill="var(--fill-0, #181C25)"/>
</g>
</svg>
