<svg preserveAspectRatio="none" width="100%" height="100%" overflow="visible" style="display: block;" viewBox="0 0 9.99999 10" fill="none" xmlns="http://www.w3.org/2000/svg">
<path id="Vector" d="M3.53832 1.27663C4.44562 0.920452 5.45175 0.907815 6.36771 1.24109C7.15958 1.52922 7.83694 2.05874 8.30721 2.75H7.24999C6.97385 2.75 6.74999 2.97386 6.74999 3.25C6.74999 3.52614 6.97385 3.75 7.24999 3.75H9.49999C9.77613 3.75 9.99999 3.52614 9.99999 3.25V1C9.99999 0.723858 9.77613 0.5 9.49999 0.5C9.22385 0.5 8.99999 0.723858 8.99999 1V1.99995C8.4207 1.22758 7.62659 0.635004 6.70964 0.301366C5.56469 -0.115231 4.30702 -0.0994347 3.1729 0.345788C2.03878 0.791011 1.10625 1.63502 0.550485 2.71927C-0.00527709 3.80351 -0.146022 5.05337 0.154691 6.23406C0.455404 7.41476 1.17688 8.44502 2.18358 9.13132C3.19029 9.81761 4.41294 10.1127 5.62187 9.96118C6.83079 9.80964 7.94279 9.22191 8.74896 8.30838C9.32093 7.66023 9.71103 6.87975 9.88942 6.04583C9.95131 5.75647 9.7181 5.5 9.42219 5.5H9.40961C9.15763 5.5 8.94836 5.68857 8.88954 5.93359C8.73816 6.56422 8.43451 7.15338 7.99917 7.6467C7.35423 8.37753 6.46463 8.84772 5.4975 8.96894C4.53036 9.09017 3.55223 8.85409 2.74687 8.30505C1.9415 7.75601 1.36433 6.9318 1.12375 5.98725C0.883184 5.0427 0.995779 4.04281 1.44039 3.17541C1.885 2.30802 2.63102 1.63281 3.53832 1.27663Z" fill="var(--fill-0, #181C25)"/>
</svg>
