<svg preserveAspectRatio="none" width="100%" height="100%" overflow="visible" style="display: block;" viewBox="0 0 14 14" fill="none" xmlns="http://www.w3.org/2000/svg">
<g id="&#229;&#184;&#184;&#232;&#167;&#132;&#230;&#147;&#141;&#228;&#189;&#156;/&#230;&#144;&#156;&#231;&#180;&#162;">
<g id="Vector">
<path d="M6.12504 1.74967C3.70879 1.74967 1.75004 3.70843 1.75004 6.12467C1.75004 8.54092 3.70879 10.4997 6.12504 10.4997C8.54129 10.4997 10.5 8.54092 10.5 6.12467C10.5 3.70843 8.54129 1.74967 6.12504 1.74967ZM0.583374 6.12467C0.583374 3.0641 3.06446 0.583008 6.12504 0.583008C9.18562 0.583008 11.6667 3.0641 11.6667 6.12467C11.6667 9.18525 9.18562 11.6663 6.12504 11.6663C3.06446 11.6663 0.583374 9.18525 0.583374 6.12467Z" fill="var(--fill-0, #181C25)"/>
<path d="M9.33337 9.33301C9.56118 9.1052 9.93053 9.1052 10.1583 9.33301L13.125 12.2997C13.3528 12.5275 13.3528 12.8969 13.125 13.1247C12.8972 13.3525 12.5279 13.3525 12.3001 13.1247L9.33337 10.158C9.10557 9.93016 9.10557 9.56081 9.33337 9.33301Z" fill="var(--fill-0, #181C25)"/>
</g>
</g>
</svg>
