<svg preserveAspectRatio="none" width="100%" height="100%" overflow="visible" style="display: block;" viewBox="0 0 13.125 11.3741" fill="none" xmlns="http://www.w3.org/2000/svg">
<path id="Vector" d="M12.0852 5.95107L6.5625 11.3741L1.03981 5.95107C-0.346602 4.58968 -0.346602 2.38243 1.03981 1.02104C2.42622 -0.340347 4.67403 -0.340347 6.06044 1.02104C6.25513 1.21222 6.42249 1.42009 6.5625 1.63995C6.70251 1.42009 6.86987 1.21222 7.06456 1.02104C8.45097 -0.340347 10.6988 -0.340347 12.0852 1.02104C13.4716 2.38243 13.4716 4.58968 12.0852 5.95107ZM11.4721 5.32681C12.5093 4.30834 12.5093 2.66376 11.4721 1.64529C10.4261 0.618142 8.72368 0.618142 7.67765 1.64529C7.53268 1.78764 7.40668 1.94326 7.30057 2.10989L6.5625 3.26886L5.82443 2.10989C5.71832 1.94326 5.59232 1.78764 5.44735 1.64529C4.40132 0.618142 2.69892 0.618142 1.65289 1.64529C0.615703 2.66376 0.615703 4.30834 1.65289 5.32681L6.5625 10.1478L11.4721 5.32681Z" fill="var(--fill-0, #FF8000)"/>
</svg>
