<svg preserveAspectRatio="none" width="100%" height="100%" overflow="visible" style="display: block;" viewBox="0 0 16.875 16.875" fill="none" xmlns="http://www.w3.org/2000/svg">
<g id="Vector">
<path d="M8.4375 15.75C12.4761 15.75 15.75 12.4761 15.75 8.4375C15.75 4.39892 12.4761 1.125 8.4375 1.125C4.39892 1.125 1.125 4.39892 1.125 8.4375C1.125 12.4761 4.39892 15.75 8.4375 15.75ZM8.4375 16.875C3.7776 16.875 0 13.0974 0 8.4375C0 3.7776 3.7776 0 8.4375 0C13.0974 0 16.875 3.7776 16.875 8.4375C16.875 13.0974 13.0974 16.875 8.4375 16.875Z" fill="var(--fill-0, #181C25)"/>
<path d="M7.875 3.375H9V7.87603H12.4691V9.00103H7.875V3.375Z" fill="var(--fill-0, #181C25)"/>
</g>
</svg>
