<svg preserveAspectRatio="none" width="100%" height="100%" overflow="visible" style="display: block;" viewBox="0 0 18 15.75" fill="none" xmlns="http://www.w3.org/2000/svg">
<path id="Vector" d="M11.0893 4.44867C11.0893 5.69435 10.6529 6.86221 9.89446 7.69841C9.6364 8.16257 9.48214 8.62849 9.48214 9.04432C9.48214 9.43788 9.63136 9.55423 10.2112 9.66823C10.279 9.68156 10.7581 9.76878 10.8688 9.79671C12.6506 10.2462 14.625 11.4622 14.625 13.0074V15.75H0V13.0074C0 11.4622 1.97443 10.2462 3.75615 9.79671C3.86686 9.76878 4.34604 9.68156 4.41383 9.66823C4.99364 9.55423 5.14286 9.43788 5.14286 9.04432C5.14286 8.62849 4.9886 8.16257 4.73054 7.69841C3.97208 6.86221 3.53571 5.69435 3.53571 4.44867C3.53571 1.72904 4.77849 0 7.3125 0C9.84651 0 11.0893 1.72904 11.0893 4.44867ZM1.125 14.625H13.5V13.0074C13.5 12.2811 12.2305 11.3005 10.5937 10.8875C10.5803 10.8842 10.484 10.8647 10.3595 10.8409L10.337 10.8366L9.99414 10.7721C8.93904 10.5647 8.35714 10.0742 8.35714 9.04432C8.35714 8.42868 8.55751 7.78793 8.91121 7.15176L8.97415 7.03854L9.06117 6.9426C9.63215 6.31309 9.96429 5.4136 9.96429 4.44867C9.96429 2.20512 9.08666 1.125 7.3125 1.125C5.53834 1.125 4.66071 2.20512 4.66071 4.44867C4.66071 5.4136 4.99285 6.31309 5.56383 6.9426L5.65085 7.03854L5.71379 7.15176C6.06749 7.78793 6.26786 8.42868 6.26786 9.04432C6.26786 10.0742 5.68596 10.5647 4.63086 10.7721L4.28801 10.8366L4.2655 10.8409C4.14103 10.8647 4.0447 10.8842 4.03134 10.8875C2.39447 11.3005 1.125 12.2811 1.125 13.0074V14.625ZM12.375 1.125H18V2.25H12.375V1.125ZM13.5 4.5H18V5.625H13.5V4.5ZM13.5 7.875H18V9H13.5V7.875Z" fill="var(--fill-0, #181C25)"/>
</svg>
